<?xml version="1.0" encoding="UTF-8"  standalone="no"?>
<svg xmlns:dc="http://purl.org/dc/elements/1.1/"
     xmlns:cc="http://creativecommons.org/ns#"
     xmlns:rdf="http://www.w3.org/1999/02/22-rdf-syntax-ns#"
     xmlns:svg="http://www.w3.org/2000/svg"
     xmlns="http://www.w3.org/2000/svg"
     xmlns:sodipodi="http://sodipodi.sourceforge.net/DTD/sodipodi-0.dtd"
     xmlns:inkscape="http://www.inkscape.org/namespaces/inkscape"
     width="2000"
     height="2000"
     viewBox="0 0 1000 1000">
    <g id="a"/>
    <g id="b">
        <g id="c">
            <g>
                <path class="d" style="fill:transparent"
                      d="M0,0V796H796V0H0ZM655.88,281.09c7.19-2.49,15.06,2.8,15.05,9.56,0,3.24-4.24,7.19-9.01,8.29-1.76,.4-3.6,.52-5.34,.97-1.55,.41-3.02,1.1-4.77,1.75-3.61-1.37-7.42-2.23-10.56-4.17-3.02-1.86-5.35-4.84-7.91-7.26,8.06-3.31,15.17-6.6,22.54-9.14Zm-315.15,45.47c-1.73,2.22-2.65,5.08-4.1,8.03-3.03,.39-6.29,.82-9.55,1.23-5.47,.67-9.4-2.44-10.11-7.79-.23-1.78-1.28-3.5-1.26-5.25,0-2.76,.24-5.64,1.06-8.26,.9-2.85,3.21-5.33,3.8-8.2,1.64-8.05,2.61-16.24,4.1-24.32,.27-1.43,1.52-3.22,2.8-3.81,5.42-2.52,9.98-5.74,12.29-11.55,.32-.8,1.28-1.69,2.11-1.9,6.38-1.59,8.43-7.05,11.01-12.06,1.83-3.53,3.44-7.19,5.55-10.54,2.5-3.97,7.04-4.15,9.89-.45,2.86,3.71,5.32,7.72,8.12,11.48,.52,.7,1.87,1.21,2.78,1.14,4.43-.32,12.28,4.17,13.49,8.17,.35,1.14-.03,2.59-.35,3.82-1.74,6.67-2.49,13.89-5.67,19.8-3.33,6.19-8.06,12.67-13.89,16.23-9.17,5.6-19.33,9.36-25.8,18.73-1.53,2.21-4.59,3.35-6.27,5.5Zm55.05-38.33c1.1,5.87-7.4,15.83-13.7,15.77,.11-9.51,7.16-12.3,13.7-15.77Zm-24.9,102.93c-2.66,3.06-5.87,4.59-8.64,2.61-5.11-3.66-8.09-.74-11.51,2.12-.87,.72-1.77,1.41-3.38,2.68-.81-1.96-2.12-3.61-1.85-4.93,.21-1.02,2.45-1.57,3.74-2.4,4.08-2.61,8.17-5.21,12.21-7.88,5.11-3.38,10.46-6.49,15.15-10.39,2.18-1.82,3.07-5.2,4.47-7.92,.62-1.19,1.07-2.48,1.59-3.73,1.68,1.12,4.95,2.67,4.78,3.28-1.83,6.6,3.35,9.04,6.93,12.57-.51,2.02-1.03,4.1-1.73,6.89-4,0-8.35-.91-12.04,.25-3.64,1.15-7.17,3.91-9.72,6.85Zm398.65,132.54c-2.83,6.48-6.04,12.81-9.23,19.13-.41,.8-1.4,1.58-2.27,1.82-9.51,2.62-15.35,10.64-23.24,15.62-2.79,1.76-5.8,3.19-9.09,4.98,.23,.58,.64,1.57,.88,2.15-2,2.31-3.87,4.47-6.01,6.94,.89,.61,1.25,.98,1.7,1.14,5.86,2.09,7.98,7.22,10.2,12.34,.56,1.3,1.57,3.1,2.68,3.35,4.41,1.02,8.91,1.71,13.41,2.13,2.98,.29,6.05,.15,9.01-.25,1.79-.24,3.47-1.33,5.82-2.3-1.73,4.91,4.06,9.26-.15,14.12-5.1,5.89-9.48,12.45-19.11,10.73-4.85-.87-7.25,3.08-6.07,8.12,.96,4.14,1.82,8.37,2.04,12.59,.11,2.11-.73,4.84-2.15,6.35-2.88,3.07-1.42,5.87,.41,7.91,1.32,1.47,4.17,2.02,6.37,2.1,2.57,.11,5.19-.73,7.74-1.16,1.99,7.67,.97,9.5-5.98,11.35-5.31,1.41-7.69,7.46-4.52,11.87-6.25,4.17-10.58,8.8-9.47,17.64,.59,4.72-2.82,9.95-4.44,14.94-.32,.98-.5,2.15-1.16,2.83-1,1.02-2.44,2.46-3.55,2.35-5.11-.54-8.98,.57-13.16,4.23-4,3.5-9.83,6.47-14.92,6.56-3.13,.06-7-5.28-9.41-8.95-2.75-4.18-4.79-8.52-9.86-10.61-4.32-1.77-4.19-2.08-8.25,2.36-.36-2.59-.61-4.4-.95-6.91-1.14,.13-2.93-.19-4.07,.53-7.42,4.68-10.17,3.88-13.53-4.49-2.28,1.28-4.55,2.56-6.81,3.83-.23-.36-.45-.73-.68-1.09,2.14-1.51,4.27-3.01,5.9-4.16-2-4.12-3.67-7.94-5.67-11.58-1.98-3.62-7.83-4.1-12.89-1.22-.8,.45-1.5,1.08-2.25,1.63-.38-.37-.75-.74-1.13-1.11,2.1-2.12,4.21-4.23,7.05-7.09-.65-.37-2.38-.93-2.36-1.4,.33-6.44-3.23-9.57-8.81-11.62-3.22-1.18-5.98-3.59-9.17-4.88-4.07-1.65-8.16-2.24-12.58-.01-2.77,1.4-6.29,1.31-10.63,2.1,.61-3.21,1.07-5.28,1.37-7.37,.72-4.94-2.91-7.83-5.85-10.51-3.36-3.08-7.63-5.18-11.95-7.99-4.22,3.15-8.79,6.67-13.96,1.03-1.76,3.32-1.75,6.55-6.45,7.53-3.07,.64-4.98,5.92-7.87,8.62-2.33,2.18-5.31,3.7-8.1,5.35-3.67,2.18-7.61,3.94-11.11,6.35-3.4,2.34-.95,5.96-1.39,8.95-.36,2.48-5.24,2.76-3.66,7.44,1.58,4.71,3.23,8.84,7.57,11.55,3.27,2.05,3.27,4.74,.4,6.85-5.2,3.81-9.24,8.43-12.17,14.16-.51,.99-2.41,2.31-3.03,2.04-5.15-2.24-10.42-4.41-15.09-7.45-3.34-2.16-5.6-7.78-8.72-8.09-5.79-.57-12.27,.63-17.7,2.9-6.6,2.75-9.69,9.48-11.51,16.13-.57,2.12,.93,5.14,2.16,7.37,4.21,7.63,1.35,13.52-4.25,18.78-2.52,2.37-5.23,4.58-8.03,6.62-2.12,1.53-4.03,2.54-7.15,.72-2.41-1.41-6.21-1.11-9.25-.63-3.58,.56-5.69-1.53-6.78-3.76-2.71-5.51-6.72-9.4-11.85-12.54-1.39-.85-2.17-2.84-3.04-4.41-5.59-10.13-5.16-21.44-6.09-32.44-.4-4.62-.15-9.3-.25-13.94-.01-.81-.18-1.65-.46-2.41-2.31-6.35-4.73-12.67-7-19.04-3.75-10.55-6.04-20.97,3.06-30.27,2.85-2.92,1.57-5.98-.54-8.47-4.35-5.09-8.61-10.33-15.67-12.16-1.88-.48-3.32-2.64-4.55-3.69,.08-1.69,.23-2.99,.17-4.29-.06-1.29-.76-2.68-.44-3.83,1.97-7.27,6.82-10.87,14.28-12.09,3.65-.59,7.21-2.33,10.55-4.06,2.1-1.09,1.31-10.84-1.41-13.39-3.46-3.22-2.24-6.21-1.79-10.19,.86-7.47,4.49-12.26,10.07-16.61,6.99-5.46,8.73-14.17,12.18-21.74,1.61-3.55,4.26-5.27,7.35-7.44,6.65-4.67,13.51-9.67,15.99-18.23,.31-1.05,.74-2.67,1.46-2.88,4.52-1.33,5.06-6.22,4.5-8.5-1.59-6.49,1.03-13.49-3.03-19.68-1.39-2.11-.79-5.48-1.29-8.24-.45-2.5-1.55-4.95-1.62-7.45-.07-2.57,.28-5.38,1.28-7.73,3.17-7.42-1.11-13.77-3.27-19.98-4.39-12.67-1.42-14.64,9.05-18.22,8.64-2.96,16.28,.04,23.62,4.36,.57,.34,1.34,.61,1.59,1.13,2.53,5.01,2.5,5.02,10.01,7.58v-6.24c1.25-.85,3.05-2.09,5.46-3.74,1.6,.63,4.03,1.6,6.57,2.61,2.07-1.95,2.39-3.48-.65-4.71-4.14-1.68-8.25-3.46-12.05-6.17,2.12,.73,4.23,1.47,6.91,2.4,1.61-3.46,3.25-6.97,5.06-10.84-3.15-1.38-6.27-2.27-8.79-4.03-1.53-1.08-3.15-3.59-2.98-5.29,.85-8.61,10.96-17,19.69-17.04,3.49-.02,7-.24,10.47-.67,11.7-1.48,23.6,6,29.75,16.43,3.65,6.18,3.74,12.15,3.84,18.57,.18,11.99,.27,23.99,.69,35.97,.09,2.55,1.44,5.05,2.21,7.57,.73-.05,1.46-.11,2.2-.16,.37-1.88,1.07-3.77,1.07-5.65,.02-14.81-.53-29.64,.01-44.42,.28-7.68,2.42-15.3,3.73-22.94,.14-.82,.51-1.6,.59-2.41,1.09-11.64,1.45-11.75-9.64-11.22-13.1,.62-26.18,1.64-39.28,2.24-6.32,.3-12.69,.44-18.98-.09-5.27-.44-7.1,2.21-6.91,6.5,.21,4.8-1.6,8.82-3.5,12.92-1.38,2.97-3.06,5.2-6.92,5.59-1.44,.15-3.49,2.89-3.72,4.64-.75,5.68-4.1,7.35-9.19,7.73-5.12,.38-10.19,1.61-15.3,1.74-1.99,.05-5.19-1.42-5.83-3.01-1.89-4.67-4.98-6.95-10.69-6.11,2.63-8.67-7.7-7.58-9.3-13.02-4.28,1.22-9.96-2.55-11.24-7.85-1.05-4.36-1.13-8.95-1.83-13.4-.21-1.36-.93-2.69-1.64-3.9-2.26-3.82-2.19-7.34,1.45-10.17,5.95-4.63,11.93-9.25,18.14-13.53,1.73-1.2,4.34-1.67,6.51-1.6,6.81,.24,13.61,.89,21.32,1.45,1.35-7.17,2.69-14.3,4.18-22.25-4.52,.56-7.85,1.94-10.26,.99-2.33-.91-4.06-4.03-5.42-6.53-1.46-2.69-1.91-5.91-3.26-8.68-2.31-4.73-.65-8.25,2.31-12.62,3.88-5.7,7.73-4.89,13.06-3.29,3.02,.91,7.79,1.05,9.65-.71,1.69-1.6,.63-6.23,.57-9.52-.07-5.08-2.99-8.27-7.41-10.17-1.26-.54-2.86-.8-4.19-.56-6.95,1.24-12.51-1.04-14.68-7.81-3.52,.18-7.04,.37-12.05,.63-.36,1.42-.56,4.09-1.76,6.21-.89,1.58-3.07,2.44-4.68,3.63-.46-.46-.91-.91-1.36-1.36,1.24-1.8,2.45-3.62,3.72-5.41,1.34-1.88,2.73-3.72,4.36-5.95-7.27-7.74-13.97-15.87-21.72-22.85-8.02-7.23-18.56-9.04-28.97-8.75-3.99,.11-7.88,3.51-11.84,5.36-2.88,1.35-5.77,2.7-8.71,3.91-1.18,.49-2.82,.22-3.72,.95-4.51,3.68-9.83,2.75-14.74,2.25-4.74-.49-7.71,.69-10.6,4.52-3.49,4.63-5.61,10.95-12.14,12.48-1.97,.46-4.98,.24-6.22-.98-1.4-1.38-1.71-4.21-1.83-6.45-.35-6.15,1.71-13.48-.94-18.24-5.2-9.31-8.38-19.27-12.56-28.89-3.62-8.31-13.16-8.04-19.9,.02-3.63,4.34-8.01,8.12-12.41,11.71-3.29,2.69-5.17,1.58-7.11-2.23-1.35-2.65-3.66-4.82-5.57-7.17-.3-.38-.81-.59-1.14-.95-1.68-1.84-3.2-5.02-5.04-5.21-2.23-.23-4.62,2.38-7.12,3.2-7.93,2.61-15.96,4.95-23.93,7.43-1.57,.49-3.23,.9-4.61,1.75-4.43,2.72-8.64,4.85-14.4,3.87-2.89-.49-6.79,1.68-9.4,3.72-3.16,2.47-5.81,4.42-10.21,4.94-6.49,.76-10.83,5.6-13.83,11.46-.69,1.33-1.97,2.6-3.29,3.32-7.5,4.11-15.12,7.98-22.64,12.04-5.77,3.11-11.65,6.09-17.14,9.65-5.12,3.32-9.79,7.33-14.66,11.03-2.73,2.07-5.24,4.58-8.25,6.09-4.11,2.08-7.51,.38-8.8-4.13-1.18-4.09-3.49-4.23-6.81-2.79-5.4,2.33-10.7,5.12-16.34,6.51-2.4,.58-6.87-1.09-8.11-3.12-3.27-5.4-6.14-11.35-7.58-17.46-1.57-6.69-1.82-13.8-1.74-20.72,.05-4.49,1.05-9.29,2.93-13.34,1.28-2.77,4.87-4.44,7.34-6.7,6.62-6.03,15.08-8.18,23.36-8.97,7.08-.67,14.43,1.42,21.67,2.3,.48,.06,1.02,.52,1.4,.39,5.12-1.72,10.28-3.34,15.28-5.36,2.86-1.15,5.75-2.59,8.11-4.54,6.79-5.59,15.67-10.32,19.34-17.61,4.64-9.18,14.31-15.77,14.57-27.38,.06-2.61,2.33-5.53,4.29-7.65,5.06-5.49,7.11-11.74,6-19.03-.42-2.76,.08-4.67,2.79-6.12,8.62-4.63,12.23-11.96,11.83-21.74-.12-2.72,1.39-5.58,2.42-8.28,1.7-4.46,3.41-8.94,5.57-13.19,.76-1.48,2.77-3.09,4.35-3.26,8.26-.88,14.87-5.89,22.43-8.45,1.99-.68,4.37-1.84,6.13-1.3,7.99,2.41,16.52,4.23,23.41,8.56,3.77,2.37,7.87,4.86,11.39,7.71,2.85,2.32,4.01,6.72,5.95,10.18,1.06,1.88,2.11,3.76,3.32,5.54,.51,.74,1.45,1.81,2.11,1.75,11.76-1.05,18.94,8.44,28.43,12.54,3.99,1.72,7.42,2.96,11.74,2.65,2.93-.2,6.04,.52,8.91,1.38,6.57,1.98,12.94,4.72,19.6,6.24,2.53,.58,5.65-1.28,8.46-2.15,6.01-1.86,11.76-.36,17.26,1.74,3.62,1.38,6.64,1.94,10.38,.11,4.66-2.28,9.72-3.77,14.67-5.42,6.14-2.07,8.64-6.2,6.28-12.06-2.5-6.18-4.24-12.01,.89-17.68,.2-.23,.33-.63,.3-.94-.62-7.19,4.85-10.36,9.42-13.98,4.6-3.64,9.44-6.89,15.89-5.55,.81,.17,1.8-.64,2.73-.94,6.99-2.2,12.95-.28,18.51,4.22,3.98,3.21,8.19,6.22,12.57,8.86,7.49,4.51,11.3,11.53,14.19,19.32,.67,1.81,1.03,3.92,2.2,5.34,2.28,2.77,3.44,5.29,.8,7.71,2.68,.13,6.08-.68,8.08,.65,2.17,1.44,2.94,4.92,4.53,7.38,.62,.97,1.96,2.34,2.74,2.2,3.83-.69,7.58-1.81,11.35-2.85,.93-.25,2.27-1.38,2.62-1.1,4.54,3.62,9.22,.4,13.79,.37,3.34-.03,4.77,1.41,5.35,4.56,.29,1.61,1.41,3.08,2.18,4.6,.35,.69,1.16,1.45,1.04,2.03-2.2,10.88,4.05,16.64,12.58,21.09,.73,.38,1.55,.75,2.09,1.34,3.91,4.29,7.7,8.69,11.67,12.93,1.42,1.52,3.14,2.8,4.85,4.02,4.34,3.08,10.08,4.4,12.17,10.31,.39,1.09,2.38,1.66,3.68,2.38,.86,.48,2.3,.56,2.64,1.24,4.22,8.56,13.46,7.61,20.47,10.73,5.38,2.4,11.3,3.55,16.93,5.42,3.99,1.32,4.71,5.35,3.34,9.25-2.64,7.54-10.69,6.4-15.43,10.53-4.89,4.27-8.75,8.41-9.1,15.62-.19,3.68-3.05,7.59-5.59,10.65-1.48,1.78-4.31,1.03-5.64-1.72-1.67-3.44-3.92-6.68-5.08-10.27-.71-2.2,.15-4.9,.25-6.37,1.98-.59,4.31-.85,4.38-1.39,.32-2.58,1.01-6.11-.34-7.64-1.34-1.53-4.51-4.34-7.83-.22-.94,1.16-9.01-.96-9.11-1.99-.56-6.23-5.53-3.26-8.36-5.42-1.31,3.59-2.43,6.65-3.64,9.96,1.22,.72,2.26,1.34,3.56,2.12-.96,.36-1.53,.57-2.46,.91,2.55,.84,4.78,2.07,7.08,2.24,5.29,.4,8.54,3.26,10.78,7.69,2.41,4.75,4.73,9.54,7.13,14.3,1.27,2.51,1.05,4.49-1.75,5.71-9.97,4.35-9.01,15.79-3.59,21.15,6.77,6.7,9.83,14.16,11.65,23.38,1.67,8.47,7.38,15.5,15.98,19.16q7.6,3.23,12.21,.69c-.43,3.12-.79,5.7-1.25,9.03,6.02,3.57,12.53,7.73,19.32,11.39,6.67,3.6,13.62,6.69,20.89,10.22-5.51,2.28-8.94,5.25-9.56,10.89-.22,2.1-3.91,1.08-4.45,4.37-.63,3.87,.32,12.4,3.37,14.94,3.54,2.94,7.2,5.74,11.02,8.77,.66-.84,1.38-1.77,2.21-2.82,.33,.56,.42,.91,.65,1.05,4.34,2.66,7.84,6.19,10.82,10.29,4.22-3.2,9.68,3.49,12.65-.4,5.54,.21,10.15,.08,14.68,.66,3.52,.45,7.01,1.56,10.36,2.79,4.39,1.6,8.92,3.15,12.84,5.59,3.02,1.88,5.69,4.79,7.64,7.81,3.19,4.93,5.33,10.55,8.65,15.37,1.07,1.57,4.41,1.94,6.78,2.17,5.86,.55,11.75,.67,17.62,1.07,1.09,.07,2.8,.29,3.13,.98,3.05,6.32,6.33,12.6,8.53,19.24,.82,2.48-1.23,5.82-1.56,8.81-.29,2.62,.1,5.31-.02,7.96-.05,1.22-.22,2.96-1.01,3.54-4.08,3.01-3.92,7.01-3.65,11.44,.26,4.35-.32,8.74-.5,13.12-.13,3.14,.34,6.43-.44,9.39-.99,3.78-1.86,7.59-3.36,11.36-3.59,9.03-10.67,12.3-18.39,15.64-2.43,1.06-4,6.99-2.44,9.6,1.83,3.09,4.21,5.67,8.3,3.71-.16-1.78-.3-3.35-.57-6.35,1.64,1.99,2.2,2.68,2.81,3.42,.59-.45,1.05-.68,1.34-1.05,2.16-2.69,4.68-3.16,8.27-3.46,4.54-.37,8.08,.12,11.19,3.09,1.03,.99,2.17,3.18,1.74,4.16Z"/>
                <path  style="fill:#6c757d"
                    d="M758.03,544.65c.87-.24,1.86-1.02,2.27-1.82,3.19-6.32,6.4-12.65,9.23-19.13,.43-.98-.71-3.17-1.74-4.16-3.11-2.97-6.65-3.46-11.19-3.09-3.59,.3-6.11,.77-8.27,3.46-.29,.37-.75,.6-1.34,1.05-.61-.74-1.17-1.43-2.81-3.42,.27,3,.41,4.57,.57,6.35-4.09,1.96-6.47-.62-8.3-3.71-1.56-2.61,.01-8.54,2.44-9.6,7.72-3.34,14.8-6.61,18.39-15.64,1.5-3.77,2.37-7.58,3.36-11.36,.78-2.96,.31-6.25,.44-9.39,.18-4.38,.76-8.77,.5-13.12-.27-4.43-.43-8.43,3.65-11.44,.79-.58,.96-2.32,1.01-3.54,.12-2.65-.27-5.34,.02-7.96,.33-2.99,2.38-6.33,1.56-8.81-2.2-6.64-5.48-12.92-8.53-19.24-.33-.69-2.04-.91-3.13-.98-5.87-.4-11.76-.52-17.62-1.07-2.37-.23-5.71-.6-6.78-2.17-3.32-4.82-5.46-10.44-8.65-15.37-1.95-3.02-4.62-5.93-7.64-7.81-3.92-2.44-8.45-3.99-12.84-5.59-3.35-1.23-6.84-2.34-10.36-2.79-4.53-.58-9.14-.45-14.68-.66-2.97,3.89-8.43-2.8-12.65,.4-2.98-4.1-6.48-7.63-10.82-10.29-.23-.14-.32-.49-.65-1.05-.83,1.05-1.55,1.98-2.21,2.82-3.82-3.03-7.48-5.83-11.02-8.77-3.05-2.54-4-11.07-3.37-14.94,.54-3.29,4.23-2.27,4.45-4.37,.62-5.64,4.05-8.61,9.56-10.89-7.27-3.53-14.22-6.62-20.89-10.22-6.79-3.66-13.3-7.82-19.32-11.39,.46-3.33,.82-5.91,1.25-9.03q-4.62,2.54-12.21-.69c-8.6-3.66-14.31-10.69-15.98-19.16-1.82-9.22-4.88-16.68-11.65-23.38-5.42-5.36-6.38-16.8,3.59-21.15,2.8-1.22,3.02-3.2,1.75-5.71-2.4-4.76-4.72-9.55-7.13-14.3-2.24-4.43-5.49-7.29-10.78-7.69-2.3-.17-4.53-1.4-7.08-2.24,.93-.34,1.5-.55,2.46-.91-1.3-.78-2.34-1.4-3.56-2.12,1.21-3.31,2.33-6.37,3.64-9.96,2.83,2.16,7.8-.81,8.36,5.42,.1,1.03,8.17,3.15,9.11,1.99,3.32-4.12,6.49-1.31,7.83,.22,1.35,1.53,.66,5.06,.34,7.64-.07,.54-2.4,.8-4.38,1.39-.1,1.47-.96,4.17-.25,6.37,1.16,3.59,3.41,6.83,5.08,10.27,1.33,2.75,4.16,3.5,5.64,1.72,2.54-3.06,5.4-6.97,5.59-10.65,.35-7.21,4.21-11.35,9.1-15.62,4.74-4.13,12.79-2.99,15.43-10.53,1.37-3.9,.65-7.93-3.34-9.25-5.63-1.87-11.55-3.02-16.93-5.42-7.01-3.12-16.25-2.17-20.47-10.73-.34-.68-1.78-.76-2.64-1.24-1.3-.72-3.29-1.29-3.68-2.38-2.09-5.91-7.83-7.23-12.17-10.31-1.71-1.22-3.43-2.5-4.85-4.02-3.97-4.24-7.76-8.64-11.67-12.93-.54-.59-1.36-.96-2.09-1.34-8.53-4.45-14.78-10.21-12.58-21.09,.12-.58-.69-1.34-1.04-2.03-.77-1.52-1.89-2.99-2.18-4.6-.58-3.15-2.01-4.59-5.35-4.56-4.57,.03-9.25,3.25-13.79-.37-.35-.28-1.69,.85-2.62,1.1-3.77,1.04-7.52,2.16-11.35,2.85-.78,.14-2.12-1.23-2.74-2.2-1.59-2.46-2.36-5.94-4.53-7.38-2-1.33-5.4-.52-8.08-.65,2.64-2.42,1.48-4.94-.8-7.71-1.17-1.42-1.53-3.53-2.2-5.34-2.89-7.79-6.7-14.81-14.19-19.32-4.38-2.64-8.59-5.65-12.57-8.86-5.56-4.5-11.52-6.42-18.51-4.22-.93,.3-1.92,1.11-2.73,.94-6.45-1.34-11.29,1.91-15.89,5.55-4.57,3.62-10.04,6.79-9.42,13.98,.03,.31-.1,.71-.3,.94-5.13,5.67-3.39,11.5-.89,17.68,2.36,5.86-.14,9.99-6.28,12.06-4.95,1.65-10.01,3.14-14.67,5.42-3.74,1.83-6.76,1.27-10.38-.11-5.5-2.1-11.25-3.6-17.26-1.74-2.81,.87-5.93,2.73-8.46,2.15-6.66-1.52-13.03-4.26-19.6-6.24-2.87-.86-5.98-1.58-8.91-1.38-4.32,.31-7.75-.93-11.74-2.65-9.49-4.1-16.67-13.59-28.43-12.54-.66,.06-1.6-1.01-2.11-1.75-1.21-1.78-2.26-3.66-3.32-5.54-1.94-3.46-3.1-7.86-5.95-10.18-3.52-2.85-7.62-5.34-11.39-7.71-6.89-4.33-15.42-6.15-23.41-8.56-1.76-.54-4.14,.62-6.13,1.3-7.56,2.56-14.17,7.57-22.43,8.45-1.58,.17-3.59,1.78-4.35,3.26-2.16,4.25-3.87,8.73-5.57,13.19-1.03,2.7-2.54,5.56-2.42,8.28,.4,9.78-3.21,17.11-11.83,21.74-2.71,1.45-3.21,3.36-2.79,6.12,1.11,7.29-.94,13.54-6,19.03-1.96,2.12-4.23,5.04-4.29,7.65-.26,11.61-9.93,18.2-14.57,27.38-3.67,7.29-12.55,12.02-19.34,17.61-2.36,1.95-5.25,3.39-8.11,4.54-5,2.02-10.16,3.64-15.28,5.36-.38,.13-.92-.33-1.4-.39-7.24-.88-14.59-2.97-21.67-2.3-8.28,.79-16.74,2.94-23.36,8.97-2.47,2.26-6.06,3.93-7.34,6.7-1.88,4.05-2.88,8.85-2.93,13.34-.08,6.92,.17,14.03,1.74,20.72,1.44,6.11,4.31,12.06,7.58,17.46,1.24,2.03,5.71,3.7,8.11,3.12,5.64-1.39,10.94-4.18,16.34-6.51,3.32-1.44,5.63-1.3,6.81,2.79,1.29,4.51,4.69,6.21,8.8,4.13,3.01-1.51,5.52-4.02,8.25-6.09,4.87-3.7,9.54-7.71,14.66-11.03,5.49-3.56,11.37-6.54,17.14-9.65,7.52-4.06,15.14-7.93,22.64-12.04,1.32-.72,2.6-1.99,3.29-3.32,3-5.86,7.34-10.7,13.83-11.46,4.4-.52,7.05-2.47,10.21-4.94,2.61-2.04,6.51-4.21,9.4-3.72,5.76,.98,9.97-1.15,14.4-3.87,1.38-.85,3.04-1.26,4.61-1.75,7.97-2.48,16-4.82,23.93-7.43,2.5-.82,4.89-3.43,7.12-3.2,1.84,.19,3.36,3.37,5.04,5.21,.33,.36,.84,.57,1.14,.95,1.91,2.35,4.22,4.52,5.57,7.17,1.94,3.81,3.82,4.92,7.11,2.23,4.4-3.59,8.78-7.37,12.41-11.71,6.74-8.06,16.28-8.33,19.9-.02,4.18,9.62,7.36,19.58,12.56,28.89,2.65,4.76,.59,12.09,.94,18.24,.12,2.24,.43,5.07,1.83,6.45,1.24,1.22,4.25,1.44,6.22,.98,6.53-1.53,8.65-7.85,12.14-12.48,2.89-3.83,5.86-5.01,10.6-4.52,4.91,.5,10.23,1.43,14.74-2.25,.9-.73,2.54-.46,3.72-.95,2.94-1.21,5.83-2.56,8.71-3.91,3.96-1.85,7.85-5.25,11.84-5.36,10.41-.29,20.95,1.52,28.97,8.75,7.75,6.98,14.45,15.11,21.72,22.85-1.63,2.23-3.02,4.07-4.36,5.95-1.27,1.79-2.48,3.61-3.72,5.41,.45,.45,.9,.9,1.36,1.36,1.61-1.19,3.79-2.05,4.68-3.63,1.2-2.12,1.4-4.79,1.76-6.21,5.01-.26,8.53-.45,12.05-.63,2.17,6.77,7.73,9.05,14.68,7.81,1.33-.24,2.93,.02,4.19,.56,4.42,1.9,7.34,5.09,7.41,10.17,.06,3.29,1.12,7.92-.57,9.52-1.86,1.76-6.63,1.62-9.65,.71-5.33-1.6-9.18-2.41-13.06,3.29-2.96,4.37-4.62,7.89-2.31,12.62,1.35,2.77,1.8,5.99,3.26,8.68,1.36,2.5,3.09,5.62,5.42,6.53,2.41,.95,5.74-.43,10.26-.99-1.49,7.95-2.83,15.08-4.18,22.25-7.71-.56-14.51-1.21-21.32-1.45-2.17-.07-4.78,.4-6.51,1.6-6.21,4.28-12.19,8.9-18.14,13.53-3.64,2.83-3.71,6.35-1.45,10.17,.71,1.21,1.43,2.54,1.64,3.9,.7,4.45,.78,9.04,1.83,13.4,1.28,5.3,6.96,9.07,11.24,7.85,1.6,5.44,11.93,4.35,9.3,13.02,5.71-.84,8.8,1.44,10.69,6.11,.64,1.59,3.84,3.06,5.83,3.01,5.11-.13,10.18-1.36,15.3-1.74,5.09-.38,8.44-2.05,9.19-7.73,.23-1.75,2.28-4.49,3.72-4.64,3.86-.39,5.54-2.62,6.92-5.59,1.9-4.1,3.71-8.12,3.5-12.92-.19-4.29,1.64-6.94,6.91-6.5,6.29,.53,12.66,.39,18.98,.09,13.1-.6,26.18-1.62,39.28-2.24,11.09-.53,10.73-.42,9.64,11.22-.08,.81-.45,1.59-.59,2.41-1.31,7.64-3.45,15.26-3.73,22.94-.54,14.78,.01,29.61-.01,44.42,0,1.88-.7,3.77-1.07,5.65-.74,.05-1.47,.11-2.2,.16-.77-2.52-2.12-5.02-2.21-7.57-.42-11.98-.51-23.98-.69-35.97-.1-6.42-.19-12.39-3.84-18.57-6.15-10.43-18.05-17.91-29.75-16.43-3.47,.43-6.98,.65-10.47,.67-8.73,.04-18.84,8.43-19.69,17.04-.17,1.7,1.45,4.21,2.98,5.29,2.52,1.76,5.64,2.65,8.79,4.03-1.81,3.87-3.45,7.38-5.06,10.84-2.68-.93-4.79-1.67-6.91-2.4,3.8,2.71,7.91,4.49,12.05,6.17,3.04,1.23,2.72,2.76,.65,4.71-2.54-1.01-4.97-1.98-6.57-2.61-2.41,1.65-4.21,2.89-5.46,3.74v6.24c-7.51-2.56-7.48-2.57-10.01-7.58-.25-.52-1.02-.79-1.59-1.13-7.34-4.32-14.98-7.32-23.62-4.36-10.47,3.58-13.44,5.55-9.05,18.22,2.16,6.21,6.44,12.56,3.27,19.98-1,2.35-1.35,5.16-1.28,7.73,.07,2.5,1.17,4.95,1.62,7.45,.5,2.76-.1,6.13,1.29,8.24,4.06,6.19,1.44,13.19,3.03,19.68,.56,2.28,.02,7.17-4.5,8.5-.72,.21-1.15,1.83-1.46,2.88-2.48,8.56-9.34,13.56-15.99,18.23-3.09,2.17-5.74,3.89-7.35,7.44-3.45,7.57-5.19,16.28-12.18,21.74-5.58,4.35-9.21,9.14-10.07,16.61-.45,3.98-1.67,6.97,1.79,10.19,2.72,2.55,3.51,12.3,1.41,13.39-3.34,1.73-6.9,3.47-10.55,4.06-7.46,1.22-12.31,4.82-14.28,12.09-.32,1.15,.38,2.54,.44,3.83,.06,1.3-.09,2.6-.17,4.29,1.23,1.05,2.67,3.21,4.55,3.69,7.06,1.83,11.32,7.07,15.67,12.16,2.11,2.49,3.39,5.55,.54,8.47-9.1,9.3-6.81,19.72-3.06,30.27,2.27,6.37,4.69,12.69,7,19.04,.28,.76,.45,1.6,.46,2.41,.1,4.64-.15,9.32,.25,13.94,.93,11,.5,22.31,6.09,32.44,.87,1.57,1.65,3.56,3.04,4.41,5.13,3.14,9.14,7.03,11.85,12.54,1.09,2.23,3.2,4.32,6.78,3.76,3.04-.48,6.84-.78,9.25,.63,3.12,1.82,5.03,.81,7.15-.72,2.8-2.04,5.51-4.25,8.03-6.62,5.6-5.26,8.46-11.15,4.25-18.78-1.23-2.23-2.73-5.25-2.16-7.37,1.82-6.65,4.91-13.38,11.51-16.13,5.43-2.27,11.91-3.47,17.7-2.9,3.12,.31,5.38,5.93,8.72,8.09,4.67,3.04,9.94,5.21,15.09,7.45,.62,.27,2.52-1.05,3.03-2.04,2.93-5.73,6.97-10.35,12.17-14.16,2.87-2.11,2.87-4.8-.4-6.85-4.34-2.71-5.99-6.84-7.57-11.55-1.58-4.68,3.3-4.96,3.66-7.44,.44-2.99-2.01-6.61,1.39-8.95,3.5-2.41,7.44-4.17,11.11-6.35,2.79-1.65,5.77-3.17,8.1-5.35,2.89-2.7,4.8-7.98,7.87-8.62,4.7-.98,4.69-4.21,6.45-7.53,5.17,5.64,9.74,2.12,13.96-1.03,4.32,2.81,8.59,4.91,11.95,7.99,2.94,2.68,6.57,5.57,5.85,10.51-.3,2.09-.76,4.16-1.37,7.37,4.34-.79,7.86-.7,10.63-2.1,4.42-2.23,8.51-1.64,12.58,.01,3.19,1.29,5.95,3.7,9.17,4.88,5.58,2.05,9.14,5.18,8.81,11.62-.02,.47,1.71,1.03,2.36,1.4-2.84,2.86-4.95,4.97-7.05,7.09,.38,.37,.75,.74,1.13,1.11,.75-.55,1.45-1.18,2.25-1.63,5.06-2.88,10.91-2.4,12.89,1.22,2,3.64,3.67,7.46,5.67,11.58-1.63,1.15-3.76,2.65-5.9,4.16,.23,.36,.45,.73,.68,1.09,2.26-1.27,4.53-2.55,6.81-3.83,3.36,8.37,6.11,9.17,13.53,4.49,1.14-.72,2.93-.4,4.07-.53,.34,2.51,.59,4.32,.95,6.91,4.06-4.44,3.93-4.13,8.25-2.36,5.07,2.09,7.11,6.43,9.86,10.61,2.41,3.67,6.28,9.01,9.41,8.95,5.09-.09,10.92-3.06,14.92-6.56,4.18-3.66,8.05-4.77,13.16-4.23,1.11,.11,2.55-1.33,3.55-2.35,.66-.68,.84-1.85,1.16-2.83,1.62-4.99,5.03-10.22,4.44-14.94-1.11-8.84,3.22-13.47,9.47-17.64-3.17-4.41-.79-10.46,4.52-11.87,6.95-1.85,7.97-3.68,5.98-11.35-2.55,.43-5.17,1.27-7.74,1.16-2.2-.08-5.05-.63-6.37-2.1-1.83-2.04-3.29-4.84-.41-7.91,1.42-1.51,2.26-4.24,2.15-6.35-.22-4.22-1.08-8.45-2.04-12.59-1.18-5.04,1.22-8.99,6.07-8.12,9.63,1.72,14.01-4.84,19.11-10.73,4.21-4.86-1.58-9.21,.15-14.12-2.35,.97-4.03,2.06-5.82,2.3-2.96,.4-6.03,.54-9.01,.25-4.5-.42-9-1.11-13.41-2.13-1.11-.25-2.12-2.05-2.68-3.35-2.22-5.12-4.34-10.25-10.2-12.34-.45-.16-.81-.53-1.7-1.14,2.14-2.47,4.01-4.63,6.01-6.94-.24-.58-.65-1.57-.88-2.15,3.29-1.79,6.3-3.22,9.09-4.98,7.89-4.98,13.73-13,23.24-15.62ZM325.13,196.68c-.01,.15-.03,.3-.05,.45-.04,.33-.09,.67-.16,1.01,.02-.31,.05-.61,.09-.92,.03-.31,.06-.61,.1-.92l.09-.72c0,.36-.03,.72-.07,1.1Zm407.91,240.43c-3.69,4.1-4.92,8.89-4.96,14.21-.08,10.5-5.26,13.52-14.39,8.45-8.4-4.67-20.32-2.44-25.93,5.52-1.58,2.24-1.82,6.02-1.41,8.92,.58,4.06,2.15,8.03,3.64,11.9,1.51,3.92,.97,7.21-2.12,9.97-4.71,4.2-9.98,7.88-14.16,12.55-5.52,6.17-10.29,13.04-15.24,19.71-2.96,3.97-2.72,7.74,.49,11.81,2.54,3.21,4.79,6.95,6.05,10.81,5.62,17.25,9.09,34.74,5.71,53.06-.98,5.33-.8,10.95-.46,16.4,.27,4.47,2.75,5.74,6.94,4.16,3.11-1.17,6.03-2.83,9.1-4.11,4.66-1.95,7.68-.78,9.68,3.87,2.84,6.56,5.99,13.05,8.03,19.86,1.3,4.33,1.1,9.18,1.12,13.81,.01,4.98,.12,9.35,5.47,12.24,3.43,1.86,5.66,5.81,3.84,9.83-.9,1.96-3.99,4.16-6.01,4.08-2.55-.1-5.78-1.85-7.29-3.93-1.18-1.63-1.07-5.34,.02-7.23,1.83-3.16,1.7-6.12,2.12-9.51,1.65-13.06-4.05-23.97-8.35-35.41-2.58-6.86-3.88-7.5-10.62-4.26-.3,.15-.6,.29-.9,.43-12.3,6.02-16.16,3.67-16.05-10.2,.04-5.14,.6-10.35,1.62-15.39,2.33-11.49-.42-22.53-2.38-33.66-.18-1.02-.91-2.29-1.77-2.78-3.61-2.06-7.28-4.07-11.09-5.72-3.8-1.64-6.08-.03-4.71,3.7,2.64,7.16-.48,13.49-1.94,20.04-.29,1.31-2.39,2.81-3.9,3.14-4.44,.98-9.43-5.34-7.86-9.62,1.12-3.07,4.55-4.26,7.22-2.46,1.21,.82,2.31,1.79,4.87,3.8,0-4.85-.1-8.43,.04-12,.11-2.83,.52-5.65,.8-8.48,2.8,.36,5.72,.35,8.38,1.18,2.77,.88,5.29,2.57,8.82,4.36-1.99-8.6-4.79-15.8-10.74-21.24-1.66-1.52-4.48-2.6-6.72-2.51-16.78,.66-33.22,2.97-47.78,12.3-2.08,1.33-4.49,2.75-5.64,4.76-3.22,5.6-8.39,8.17-13.82,10.92-6.03,3.06-11.75,6.82-17.38,10.61-4.34,2.93-8.73,4.1-13.63,2.02-3.52-1.5-6.95-3.23-10.4-4.88-5.79-2.77-8.04-2.38-12.34,2.2-.34,.36-.63,.77-.98,1.14-6.41,6.77-9.7,7.17-17.39,1.86-1.78,2.35-3.56,4.71-5.57,7.36,4.42,3.14,9.04,5.83,12.96,9.32,6.98,6.2,14.51,11.37,23.06,15.09,.99,.43,1.7,1.5,2.49,2.32,3.88,3.98,7.38,8.43,11.69,11.86,5.93,4.72,6.17,5.51-.7,11.13-.87-1.34-1.46-2.99-2.63-3.83-1.18-.87-2.94-.95-5.15-1.57,1.29-2.01,2.31-3.61,3.11-4.87-3.01-4.01-5.41-8.49-8.99-11.64-3.98-3.52-8.98-5.91-13.66-8.57-.75-.43-2.54-.15-3.16,.49-4.53,4.64-8.92,9.43-13.25,14.27-.39,.44-.05,1.53-.05,2.74-.93-.29-1.87-.94-2.58-.75-3.21,.86-10.39,15.42-8.78,18.52,4.06,7.84,1.78,14.44-2.78,19.88,1.85,5.02,3.23,9.55,5.2,13.8,1.35,2.9,3.35,5.57,5.43,8.04,1.29,1.54,3.26,2.52,4.93,3.75-.42,.44-.84,.88-1.25,1.32-.8-.63-1.67-1.19-2.38-1.91-4.62-4.73-9.55-8.79-16.33-10.23-2.4-.51-4.54-2.27-6.9-3.52,2.12-2.85,3.71-5,4.93-6.63-5.41-2.8-11.02-4.5-14.72-8.14-1.88-1.85-.33-7.2-.33-9.89-3.63-3.67-7.08-6.79-10.09-10.29-8.32-9.65-12.97-10.64-24.43-4.74-1.33,.69-2.58,1.53-3.91,2.21-7.24,3.73-13.36,1.08-13.5-6.94-.3-16.93-.24-33.94,1-50.82,.77-10.55,6.43-13.35,16.48-9.84,6.88,2.41,13.65,3.68,21.02,2.8,10.11-1.21,19.44,1.18,27.66,7.63,4.05,3.17,8.55,5.77,12.99,8.72,4.57-5.07,7.6-9.75,6.95-17.49-1.14-13.83-4.12-27.7-1.54-41.73,.74-4.05-.9-7.07-5.09-8.56-4.29-1.52-6.77,.66-8.49,4-6.14,11.92-16.66,13.62-28.48,12.48-7.61-.73-12.04-4.55-10.94-11.93,1.33-8.95,4.03-17.8,7.1-26.35,1.68-4.7,6.67-6.36,11.64-6.32,4.36,.03,6.94-1.91,9.07-5.67,1.68-2.97,4.67-5.17,6.72-7.97,1.53-2.08,3.45-4.53,3.55-6.88,.48-10.27,.55-20.56,.29-30.84-.06-2.35-1.69-4.89-3.16-6.95-2.41-3.35-5.29-6.37-7.52-10.17,.7,.35,1.53,.55,2.06,1.06,3.88,3.77,5.63,3.96,8.59-.6,3.94-6.06,8.53-8.8,15.91-6.57,1.69,.51,5.49-1.15,5.97-2.59,.66-1.98-.13-5.84-1.68-6.91-5.61-3.89-8.25-8.77-8.32-15.52-.01-1.53-1.86-3.04-3.06-4.86,4.08-.35,5.26,1.81,5.68,5.21,.41,3.29,1.25,6.53,1.89,9.8,.44-.07,.87-.13,1.31-.2,.22-1.23,.45-2.47,.67-3.67,1.95,3.26,3.83,6.25,5.57,9.32,2.38,4.2,.99,8.91-3.3,11.56-3.96,2.44-8.07,4.69-11.86,7.37-5.27,3.73-6.3,8.93-6.04,15.34,.43,10.26-.13,20.59-1.01,30.83-.24,2.74-2.7,5.69-4.88,7.78-4.95,4.76-7.93,10.08-7.9,17.11,.02,4.78-3.29,7.47-7.3,9.22-2.9,1.27-5.97,2.1-8.91,3.29-6.64,2.68-9.73,7.93-8.98,15.01,.62,5.84,3.01,8.21,8.9,8.75,1.83,.17,3.66,.19,5.49,.27,8.86,.36,15.89-2.53,20.36-10.73,2.07-3.81,4.63-7.42,10.14-6.32,5.17,1.03,8.24,4.28,8.39,9.56,.03,1,.06,2.02-.1,2.99-2.45,14.52,1.45,28.81,1.59,43.24,.03,3.5,.65,6.96,4.85,8.44,4.23,1.5,6.58-1.14,9.05-3.61,8.03-8.01,9.33-8.24,19.45-3.21,2.23,1.12,4.44,2.32,6.75,3.25,4.54,1.85,8.58,1.08,12.63-1.88,4.82-3.51,9.86-6.82,15.18-9.47,6.17-3.07,11.81-6.17,16.02-12.12,4.77-6.74,5.32-6.36-1.92-10.58-.58-.33-1.16-.65-1.73-.99-9.09-5.36-8.99-5.23-17.15,1.37-2.99,2.42-6.59,4.09-9.91,6.1-.25-.39-.51-.77-.76-1.16,.75-.58,1.47-1.22,2.25-1.76,3.41-2.35,7-4.46,10.2-7.05,4.96-4.03,7.73-4.4,13.03-1.06,2.25,1.42,4.56,2.74,6.82,4.16,5.18,3.24,10.1,3.3,16.05,1.04,7.68-2.92,16-4.21,24.07-6.07,2.09-.48,4.38-.17,6.43-.73,1.18-.33,2.08-1.68,3.11-2.57-.96-.78-1.8-1.89-2.9-2.27-2.02-.71-4.23-.88-6.31-1.47-1.74-.49-3.75-.88-5.05-2-4.37-3.75-8.21-7.76-14.04-9.91-4.52-1.66-4.09-8.29-.14-12.95,3.46-4.08,9.42-4.6,13.35-1.16,4.1,3.57,4.36,8.87,.59,12.67-1.16,1.17-2.39,2.28-4.42,4.2,2.77,2.21,4.96,5.06,7.79,5.97,5.65,1.83,11.62,2.99,17.54,3.61,2.15,.22,5.21-1.34,6.69-3.08,3.67-4.29,6.71-9.12,9.9-13.8,2.67-3.91,2.62-7.34-.94-11.12-17.83-18.89-35.37-38.05-53.14-56.99-5.13-5.46-7.22-11.32-6.35-19.02,1.15-10.05,1.21-20.26,1.24-30.4,.03-8.2-6.05-13.61-12.84-12.16-5.02,1.06-10.65,7.65-10.92,12.95-.71,13.97-1.43,27.94-2,41.92-.41,9.98-6.36,15.93-16.39,16.05-1.16,.02-2.33,.01-3.5,0-11.77-.09-14.96-2.59-19.15-13.57-1.44-3.78-3.69-7.46-6.35-10.49-3.6-4.1-5.51-8.33-5.67-13.88-.1-3.21-1.91-6.48-3.37-9.52-1.73-3.59-4.43-6.78-5.69-10.49-.69-2.05,.03-5.31,1.35-7.13,1.54-2.11,4.43-3.24,6.73-4.79,.4,.43,.79,.86,1.19,1.29-1.15,1.09-2.15,2.46-3.49,3.22-4,2.27-5.06,4.94-2.16,8.92,2.13,2.94,4.26,5.99,5.74,9.28,1.32,2.94,2.33,6.28,2.42,9.47,.13,4.43,1.58,7.77,4.35,11.25,3.24,4.05,5.9,8.76,7.94,13.56,3.32,7.83,5.59,9.84,14.06,10.14,2.17,.07,4.34,.11,6.5,.04,7.56-.28,12.36-4.92,12.85-12.43,.35-5.32,.71-10.65,.79-15.98,.03-1.44-.57-3.79-1.49-4.14-1.47-.55-3.54-.07-5.15,.54-1.13,.43-1.75,2.21-2.89,2.64-2.02,.76-4.61,1.81-6.3,1.12-1.6-.67-3.3-3.4-3.31-5.24-.03-12.31-.02-24.64,.76-36.92,.78-12.3,6.17-14.95,18.06-9.21-1.58-8-2.79-16.09-4.84-23.96-1.45-5.58-2.18-10.45,1.5-15.61,3.14-4.39,2.02-8.92-2.23-12.66-4.11-3.63-8.46-7-12.6-10.61-12.1-10.55-21.37-9.66-38.05-.7-2.04,1.09-3.76,2.76-5.72,4.02-6.25,3.99-10.82,3.39-16.1-1.82-1.74-1.72-3.76-3.15-5.65-4.7,.14-.41,.29-.82,.43-1.23,1.72,.82,3.98,1.2,5.05,2.53,6.34,7.87,11.53,5.91,18.52,.99,4.15-2.92,9.16-4.58,13.67-7.03,1.28-.7,2.65-2.01,3.02-3.32,.18-.67-1.56-2.36-2.74-2.86-9.29-3.91-14.83-11.15-17.92-20.34-1.95-5.81-3.6-11.79-4.63-17.82-1.23-7.22,.18-14.13,3.57-20.8,5.52-10.84,8.28-22.33,6.81-34.93-6.29,8.29-12.55,16.02-18.22,24.17-5.37,7.7-5.12,16.68-4.2,25.55,.55,5.29,1.61,10.52,2.33,15.8,.25,1.81,.68,3.8,.18,5.46-2.2,7.38-4.7,14.66-7.1,21.98-.48-.12-.95-.23-1.43-.35,.76-4.02,.32-8.93,2.5-11.91,6.12-8.35,2.94-16.9,2.13-25.48-.37-3.97-1.28-7.91-1.38-11.88-.27-10.39,3.18-19.07,10.15-27.27,7.43-8.75,15.57-17.76,17.44-29.82,2.19-14.11-.36-26.86-12.97-35.79-.68-.48-1.39-.94-1.98-1.52-8.04-7.86-17.52-12.11-28.93-11.81-1.85,.05-3.73-.6-5.6-.93,.07-.66,.14-1.33,.21-1.99,4.74,.61,9.48,1.22,14.84,1.91-9.83-11.36-26.45-15.09-45.61-10.21,6.54,3.65,12.31,6.86,18.07,10.08-.3,.57-.6,1.15-.9,1.72-5.1-2.69-10.77-4.68-15.15-8.26-5.15-4.21-10.35-4.95-16.61-4.57-7.78,.48-15.64-.3-23.45-.09-6.76,.19-13.52,.85-20.25,1.58-7.88,.85-15.75,2.92-23.61,2.81-12.81-.19-24.13,4.58-35.58,9-1.81,.7-3.71,4.33-3.47,6.35,.28,2.33,2.91,4.38,4.78,6.91-1.52-.3-3.36-.67-5.02-1-1.88,1.53-3.83,3.12-5.78,4.71-.4-.38-.8-.75-1.21-1.12,3.46-2.38,6.21-5.17,3.86-9.38-.62-1.11-2.84-2.26-4.01-1.99-7.95,1.77-9.25,4.66-6.15,12.33,3.12,7.71,6.14,15.46,9.27,23.15,.69,1.68,1.33,3.67,2.63,4.74,.55,.46,1.03,.92,1.44,1.41,.27,.32,.52,.64,.73,.97,1.36,2.12,1.62,4.42,1.51,6.81-.02,.27-.04,.54-.06,.82-.02,.3-.05,.6-.08,.91-.07,.66-.16,1.33-.24,2,.06-2.03-.29-3.9-.9-5.68-.28-.83-.62-1.64-1-2.43h0c-.37-.8-.79-1.58-1.23-2.34h0c-.29-.52-.59-1.03-.9-1.53-.15-.26-.31-.51-.47-.77-.31-.5-.62-1-.94-1.5-2.35-3.79-4.63-7.59-4.85-12.16-.48-.23-.95-.46-1.43-.69-1.6,1.56-3.19,3.12-5.06,4.95-.69-1.17-2.13-3.28,1.74-4.56,3.85-1.28,2.98-3.35,1.85-6.16-2.31-5.76-4.22-11.68-6.53-18.18-70.17,25.55-141.42,51.49-213.12,77.59-1.06-2.74-2.05-5.32-3.33-8.64,63.8-23.27,127.35-46.45,190.9-69.63-.09-.34-.17-.69-.26-1.03-5.21,1.18-10.59,1.88-15.61,3.61-22.65,7.85-45.34,15.63-67.76,24.11-33.61,12.71-67,26.01-100.51,39-4.68,1.82-9.49,3.31-14.24,4.95-.19-.52-.38-1.04-.58-1.56,2.04-.8,4.07-1.63,6.12-2.41,33.32-12.58,66.61-25.26,99.99-37.7,26.65-9.94,53.33-19.81,80.18-29.21,6.98-2.45,14.61-3.03,22.41-4.56-.59-1.97-1.12-3.77-1.75-5.93,4.28-1.75,8.4-3.43,12.83-5.24-.65-2.13-1.27-4.14-2.1-6.87,5.36-1.97,10.72-3.94,16.41-6.04,1.29,3.21,2.45,6.09,3.74,9.28,2.47-.81,4.79-1.57,7.61-2.49,1.54,3.89,3.03,7.67,4.65,11.78,1.23-.36,2.33-.57,3.35-1,10.46-4.36,21.28-6.25,32.68-5.86,5.04,.18,10.33-.67,15.18-2.15,9.15-2.77,18.29-2.6,27.68-2.24,14.59,.55,29.22,.14,41.78,.14,3.08-6.81,5.22-12.18,7.9-17.28,3.43-6.55,3.3-9.67-1.93-15.08-3.41-3.53-3.86-7.75-4.14-12.39-.2-3.56,2.48-7.77-2.18-10.77-3.18-2.04-5.78-4.97-8.76-7.62-.16,.25,0-.17,.12-.16,5.06,.4,12.57,8.28,12.36,13.22-.31,7.3-.12,14.04,6.26,19.52,4.01,3.44,2.95,9.92-1.91,15.85-3.38,4.13-4.07,8.53-3.34,13.6,.52,.15,1.01,.46,1.4,.36,11.49-2.95,20.85,1.9,29.74,8.22,9.64,6.84,19.36,13.6,28.7,20.85,8.39,6.51,18.3,7.53,28.14,9.09,3.13,.5,6.27,1,9.42,1.21,6.63,.42,11.61,3.28,15.38,8.84,1.29,1.9,3.66,3.48,5.86,4.25,4.68,1.62,6.22,4.66,6.59,9.39,.21,2.83,2.17,5.53,3.34,8.28,.56,1.31,1.73,2.71,1.56,3.92-1,7.39-2.3,14.75-3.6,22.68-2-6.53-.54-12.42,.96-18.27,1.75-6.81,1.78-6.69-4.86-8.33-5.82-1.43-11.59-3.04-17.34-4.69-5.59-1.6-11.14-3.39-15.52,2.92,.51,.47,1.39,1.28,2.27,2.1-.13,.23-.26,.47-.4,.7-2.39-.77-4.78-1.54-7.17-2.31-.21,.3-.41,.61-.61,.91,2.88,2.56,5.77,5.12,8.65,7.68-.11,.27-.22,.53-.33,.8-1.57-.75-3.13-1.5-4.7-2.24-.54,5.7,.87,8.25,7.99,14.12-4.83,.16-6.69-2.98-8.32-6.18-.89-1.75-1.63-3.73-1.79-5.66-.68-8.64-6.21-12.33-14.8-14.4-.68,5.39-2.09,10.61-1.85,15.75,.58,12.34-1.96,23.89-7.55,34.72-4.07,7.9-4.29,16-2.42,24.3,1.06,4.69,2.66,9.28,4.31,13.81,3.33,9.17,9.5,16.3,18.96,18.4,13.08,2.91,22.79,10.96,32.28,19.16,20.49,17.71,38.45,37.77,53.45,60.46,1.84,2.79,5.9,4.3,9.19,5.88,1.68,.8,3.94,.61,5.92,.55,7.22-.23,14.32,.01,21.01,3.23,1.17,.57,2.58,.95,3.87,.92,17.85-.48,31.29,11.06,46.71,17.15,6.07,2.4,8.4,8.35,10.56,13.95,1.48,3.87,2.16,8.03,3.43,11.99,1.09,3.38,1.74,8.07,6.28,7.76,4.44-.31,6.39-4.13,6.9-8.57,.75-6.55,4.18-9.56,10.08-9.21,5.1,.31,9.4,5.04,9.09,9.99-.35,5.58-3.79,8.74-9.93,7.53-5.61-1.1-10.02-.5-13.92,3.82Z"/>
                <path style="fill:#6c757d"
                    d="M392.36,266.3c-1.74,6.67-2.49,13.89-5.67,19.8-3.33,6.19-8.06,12.67-13.89,16.23-9.17,5.6-19.33,9.36-25.8,18.73-1.53,2.21-4.59,3.35-6.27,5.5-1.73,2.22-2.65,5.08-4.1,8.03-3.03,.39-6.29,.82-9.55,1.23-5.47,.67-9.4-2.44-10.11-7.79-.23-1.78-1.28-3.5-1.26-5.25,0-2.76,.24-5.64,1.06-8.26,.9-2.85,3.21-5.33,3.8-8.2,1.64-8.05,2.61-16.24,4.1-24.32,.27-1.43,1.52-3.22,2.8-3.81,5.42-2.52,9.98-5.74,12.29-11.55,.32-.8,1.28-1.69,2.11-1.9,6.38-1.59,8.43-7.05,11.01-12.06,1.83-3.53,3.44-7.19,5.55-10.54,2.5-3.97,7.04-4.15,9.89-.45,2.86,3.71,5.32,7.72,8.12,11.48,.52,.7,1.87,1.21,2.78,1.14,4.43-.32,12.28,4.17,13.49,8.17,.35,1.14-.03,2.59-.35,3.82Z"/>
                <path style="fill:#6c757d"
                    d="M394.37,377.17c-.51,2.02-1.03,4.1-1.73,6.89-4,0-8.35-.91-12.04,.25-3.64,1.15-7.17,3.91-9.72,6.85-2.66,3.06-5.87,4.59-8.64,2.61-5.11-3.66-8.09-.74-11.51,2.12-.87,.72-1.77,1.41-3.38,2.68-.81-1.96-2.12-3.61-1.85-4.93,.21-1.02,2.45-1.57,3.74-2.4,4.08-2.61,8.17-5.21,12.21-7.88,5.11-3.38,10.46-6.49,15.15-10.39,2.18-1.82,3.07-5.2,4.47-7.92,.62-1.19,1.07-2.48,1.59-3.73,1.68,1.12,4.95,2.67,4.78,3.28-1.83,6.6,3.35,9.04,6.93,12.57Z"/>
                <path style="fill:#6c757d"
                    d="M670.93,290.65c0,3.24-4.24,7.19-9.01,8.29-1.76,.4-3.6,.52-5.34,.97-1.55,.41-3.02,1.1-4.77,1.75-3.61-1.37-7.42-2.23-10.56-4.17-3.02-1.86-5.35-4.84-7.91-7.26,8.06-3.31,15.17-6.6,22.54-9.14,7.19-2.49,15.06,2.8,15.05,9.56Z"/>
                <path style="fill:#6c757d"
                    d="M382.08,304c.11-9.51,7.16-12.3,13.7-15.77,1.1,5.87-7.4,15.83-13.7,15.77Z"/>
                <path class="d" style="fill:#282828"
                      d="M508.9,398.85c.23-1.23,.45-2.47,.68-3.67,1.95,3.25,3.83,6.25,5.57,9.32,2.38,4.2,.99,8.92-3.3,11.56-3.96,2.44-8.07,4.69-11.86,7.38-5.27,3.73-6.3,8.93-6.04,15.34,.42,10.25-.14,20.59-1.01,30.82-.23,2.74-2.7,5.7-4.88,7.79-4.95,4.75-7.93,10.07-7.9,17.11,.02,4.78-3.29,7.47-7.3,9.22-2.89,1.27-5.97,2.1-8.9,3.29-6.64,2.68-9.73,7.93-8.98,15.01,.62,5.84,3,8.21,8.9,8.75,1.82,.17,3.66,.19,5.49,.26,8.86,.36,15.88-2.52,20.36-10.73,2.07-3.8,4.63-7.42,10.14-6.32,5.17,1.03,8.24,4.28,8.39,9.56,.03,1,.06,2.02-.1,2.99-2.44,14.52,1.46,28.81,1.59,43.23,.03,3.51,.65,6.97,4.84,8.45,4.23,1.49,6.58-1.14,9.06-3.61,8.03-8.01,9.32-8.24,19.44-3.21,2.24,1.11,4.44,2.31,6.75,3.25,4.54,1.85,8.58,1.08,12.64-1.88,4.81-3.51,9.86-6.83,15.18-9.48,6.16-3.07,11.8-6.17,16.01-12.11,4.78-6.75,5.32-6.36-1.92-10.58-.58-.34-1.16-.66-1.73-1-9.09-5.35-8.99-5.23-17.15,1.37-2.99,2.42-6.58,4.09-9.9,6.1-.25-.38-.51-.77-.76-1.15,.75-.59,1.47-1.22,2.25-1.76,3.41-2.35,7-4.46,10.2-7.06,4.95-4.02,7.72-4.39,13.02-1.06,2.25,1.42,4.56,2.75,6.82,4.16,5.18,3.24,10.1,3.3,16.05,1.04,7.69-2.92,16-4.21,24.07-6.07,2.09-.48,4.38-.17,6.43-.74,1.18-.33,2.08-1.68,3.11-2.57-.96-.78-1.8-1.89-2.9-2.27-2.03-.7-4.24-.87-6.31-1.46-1.75-.5-3.75-.88-5.05-2-4.37-3.75-8.21-7.76-14.05-9.91-4.52-1.66-4.08-8.29-.13-12.95,3.45-4.08,9.41-4.6,13.35-1.16,4.1,3.58,4.35,8.87,.58,12.68-1.16,1.17-2.38,2.27-4.42,4.2,2.77,2.2,4.96,5.05,7.79,5.97,5.66,1.83,11.62,2.99,17.54,3.61,2.15,.22,5.21-1.34,6.7-3.08,3.66-4.29,6.7-9.12,9.9-13.79,2.67-3.91,2.62-7.34-.95-11.12-17.82-18.89-35.36-38.05-53.14-56.99-5.13-5.47-7.22-11.32-6.35-19.02,1.14-10.06,1.21-20.26,1.24-30.41,.02-8.2-6.05-13.6-12.84-12.16-5.02,1.07-10.65,7.65-10.92,12.95-.71,13.97-1.43,27.94-2,41.92-.41,9.98-6.36,15.94-16.39,16.06-1.17,.01-2.33,0-3.5,0-11.78-.09-14.96-2.58-19.15-13.57-1.44-3.77-3.69-7.46-6.35-10.49-3.6-4.1-5.51-8.33-5.67-13.88-.09-3.21-1.91-6.48-3.37-9.52-1.73-3.59-4.43-6.78-5.69-10.49-.69-2.05,.03-5.31,1.35-7.13,1.53-2.11,4.42-3.24,6.73-4.79,.4,.43,.8,.86,1.19,1.29-1.15,1.09-2.15,2.46-3.49,3.22-4,2.27-5.06,4.94-2.16,8.92,2.14,2.94,4.27,5.99,5.74,9.28,1.32,2.95,2.33,6.28,2.42,9.47,.12,4.43,1.57,7.77,4.35,11.25,3.24,4.06,5.9,8.76,7.94,13.56,3.32,7.83,5.59,9.85,14.06,10.14,2.16,.08,4.34,.12,6.5,.04,7.56-.28,12.36-4.91,12.85-12.43,.35-5.32,.7-10.65,.79-15.97,.02-1.44-.58-3.79-1.49-4.14-1.47-.55-3.55-.07-5.15,.53-1.13,.43-1.75,2.22-2.89,2.64-2.02,.76-4.62,1.81-6.3,1.12-1.6-.66-3.31-3.4-3.31-5.23-.03-12.31-.02-24.65,.76-36.93,.78-12.3,6.17-14.94,18.05-9.21-1.57-8-2.78-16.09-4.84-23.96-1.45-5.58-2.18-10.46,1.5-15.61,3.13-4.39,2.01-8.91-2.23-12.65-4.12-3.63-8.46-7.01-12.6-10.62-12.1-10.55-21.38-9.66-38.06-.7-2.04,1.09-3.76,2.76-5.72,4.02-6.24,4-10.82,3.39-16.1-1.82-1.74-1.71-3.76-3.14-5.65-4.7,.14-.41,.29-.82,.43-1.23,1.71,.82,3.98,1.2,5.05,2.54,6.34,7.87,11.53,5.91,18.52,.99,4.15-2.92,9.16-4.59,13.66-7.03,1.28-.7,2.65-2.01,3.02-3.32,.19-.67-1.56-2.37-2.74-2.86-9.29-3.9-14.82-11.15-17.91-20.34-1.95-5.81-3.6-11.79-4.63-17.82-1.23-7.21,.18-14.13,3.57-20.79,5.52-10.84,8.28-22.33,6.8-34.94-6.29,8.29-12.55,16.03-18.22,24.17-5.37,7.7-5.11,16.68-4.19,25.55,.55,5.29,1.6,10.53,2.33,15.81,.25,1.81,.68,3.8,.18,5.46-2.2,7.38-4.71,14.66-7.11,21.98l-1.42-.35c.76-4.03,.31-8.93,2.49-11.91,6.12-8.36,2.94-16.91,2.14-25.49-.37-3.97-1.28-7.91-1.39-11.87-.27-10.39,3.18-19.07,10.15-27.27,7.43-8.75,15.57-17.77,17.44-29.82,2.19-14.11-.36-26.87-12.97-35.79-.68-.48-1.39-.94-1.98-1.52-8.04-7.86-17.52-12.12-28.92-11.81-1.86,.05-3.74-.6-5.6-.93,.07-.67,.14-1.33,.21-2,4.74,.61,9.48,1.23,14.84,1.92-9.83-11.36-26.45-15.1-45.61-10.21,6.54,3.65,12.3,6.86,18.07,10.08-.3,.58-.6,1.15-.9,1.73-5.1-2.69-10.77-4.68-15.15-8.26-5.15-4.21-10.35-4.96-16.61-4.57-7.78,.48-15.64-.3-23.45-.09-6.76,.19-13.52,.85-20.25,1.58-7.89,.85-15.76,2.92-23.61,2.81-12.81-.18-24.13,4.58-35.58,9-1.81,.7-3.72,4.33-3.47,6.36,.28,2.33,2.9,4.37,4.78,6.91l-5.03-1c-1.88,1.53-3.83,3.12-5.78,4.71-.4-.37-.8-.75-1.21-1.12,3.46-2.38,6.2-5.17,3.86-9.37-.62-1.11-2.84-2.26-4.01-2-7.95,1.77-9.25,4.66-6.15,12.33,3.12,7.71,6.13,15.46,9.27,23.16,.68,1.68,1.33,3.67,2.63,4.74,5.33,4.39,3.46,10.01,3.02,15.52,2.28-11.8-9.5-18.32-10.01-29.02l-1.43-.68c-1.6,1.56-3.19,3.12-5.06,4.95-.7-1.17-2.13-3.28,1.73-4.56,3.85-1.28,2.98-3.35,1.85-6.16-2.31-5.76-4.22-11.68-6.53-18.18-70.17,25.55-141.42,51.49-213.12,77.59-1.06-2.75-2.06-5.32-3.34-8.64,63.8-23.27,127.35-46.45,190.91-69.63-.09-.34-.17-.69-.26-1.03-5.21,1.18-10.59,1.88-15.61,3.61-22.65,7.85-45.34,15.63-67.76,24.11-33.61,12.71-67,26.01-100.51,39-4.68,1.82-9.49,3.31-14.24,4.95l-.58-1.56c2.04-.8,4.07-1.63,6.12-2.41,33.32-12.58,66.61-25.26,99.99-37.7,26.65-9.94,53.33-19.81,80.18-29.21,6.98-2.45,14.61-3.03,22.41-4.55-.58-1.97-1.11-3.77-1.75-5.94,4.28-1.75,8.4-3.43,12.84-5.23-.65-2.13-1.27-4.14-2.11-6.87,5.36-1.97,10.72-3.94,16.41-6.04,1.29,3.21,2.45,6.09,3.74,9.28l7.62-2.49,4.65,11.78c1.23-.36,2.33-.57,3.35-1,10.46-4.36,21.29-6.25,32.68-5.86,5.05,.17,10.33-.68,15.18-2.15,9.15-2.78,18.29-2.61,27.68-2.25,14.59,.55,29.22,.15,41.78,.15,3.08-6.81,5.23-12.18,7.9-17.28,3.43-6.55,3.3-9.67-1.92-15.08-3.42-3.54-3.87-7.76-4.14-12.4-.21-3.56,2.47-7.77-2.19-10.77-3.17-2.04-5.78-4.97-8.76-7.62-.15,.24,0-.17,.12-.16,5.07,.4,12.58,8.28,12.37,13.22-.31,7.3-.12,14.04,6.26,19.52,4.01,3.44,2.95,9.92-1.91,15.85-3.38,4.13-4.08,8.53-3.35,13.6,.52,.14,1.02,.45,1.4,.36,11.49-2.95,20.85,1.91,29.74,8.22,9.64,6.85,19.36,13.6,28.7,20.85,8.39,6.51,18.29,7.53,28.14,9.09,3.13,.5,6.27,1,9.42,1.2,6.63,.42,11.61,3.29,15.38,8.84,1.29,1.9,3.66,3.48,5.86,4.25,4.68,1.63,6.22,4.66,6.58,9.4,.22,2.83,2.18,5.52,3.35,8.28,.56,1.31,1.72,2.7,1.56,3.91-1,7.39-2.31,14.75-3.6,22.69-2-6.54-.54-12.42,.96-18.27,1.74-6.81,1.78-6.7-4.86-8.33-5.81-1.43-11.58-3.04-17.34-4.69-5.59-1.6-11.13-3.4-15.52,2.92,.51,.47,1.39,1.29,2.27,2.1l-.4,.7c-2.39-.77-4.78-1.54-7.18-2.31-.2,.3-.41,.6-.61,.91,2.88,2.56,5.77,5.12,8.65,7.68-.11,.27-.22,.53-.33,.8-1.57-.75-3.13-1.49-4.7-2.24-.54,5.7,.87,8.25,7.98,14.12-4.82,.16-6.68-2.98-8.31-6.18-.89-1.75-1.64-3.73-1.79-5.66-.69-8.64-6.21-12.33-14.8-14.4-.69,5.4-2.09,10.61-1.85,15.75,.57,12.34-1.96,23.89-7.55,34.73-4.07,7.9-4.29,16-2.42,24.3,1.06,4.69,2.67,9.28,4.31,13.82,3.33,9.17,9.5,16.29,18.96,18.39,13.08,2.91,22.79,10.96,32.28,19.16,20.49,17.71,38.46,37.77,53.45,60.46,1.84,2.79,5.9,4.3,9.19,5.88,1.68,.81,3.94,.62,5.92,.55,7.21-.23,14.32,0,21.01,3.23,1.17,.57,2.58,.95,3.87,.92,17.85-.48,31.29,11.06,46.71,17.15,6.07,2.4,8.4,8.35,10.55,13.95,1.48,3.86,2.17,8.03,3.44,11.98,1.09,3.38,1.73,8.07,6.28,7.76,4.44-.3,6.39-4.12,6.9-8.56,.75-6.55,4.18-9.56,10.08-9.21,5.1,.3,9.41,5.03,9.09,9.98-.35,5.58-3.8,8.74-9.93,7.54-5.61-1.1-10.02-.51-13.92,3.82-3.69,4.09-4.93,8.89-4.97,14.21-.08,10.49-5.26,13.51-14.39,8.45-8.41-4.67-20.32-2.44-25.93,5.52-1.58,2.24-1.82,6.03-1.41,8.93,.57,4.06,2.15,8.03,3.64,11.9,1.51,3.91,.97,7.21-2.12,9.97-4.71,4.2-9.98,7.88-14.16,12.55-5.52,6.18-10.29,13.04-15.24,19.71-2.95,3.97-2.72,7.74,.49,11.81,2.54,3.21,4.79,6.95,6.05,10.81,5.62,17.24,9.09,34.74,5.71,53.06-.98,5.32-.8,10.95-.47,16.4,.28,4.47,2.75,5.75,6.94,4.17,3.11-1.17,6.03-2.84,9.1-4.12,4.66-1.94,7.67-.78,9.68,3.88,2.83,6.56,5.98,13.05,8.03,19.85,1.3,4.33,1.1,9.19,1.11,13.81,.02,4.99,.12,9.36,5.47,12.25,3.44,1.86,5.67,5.81,3.84,9.82-.89,1.97-3.99,4.16-6.01,4.08-2.55-.1-5.78-1.85-7.29-3.93-1.18-1.63-1.07-5.34,.02-7.23,1.83-3.16,1.7-6.13,2.13-9.51,1.64-13.06-4.05-23.98-8.35-35.42-2.58-6.86-3.88-7.5-10.62-4.26-.3,.14-.6,.28-.9,.43-12.3,6.01-16.15,3.67-16.05-10.21,.04-5.14,.6-10.35,1.62-15.38,2.33-11.49-.42-22.54-2.38-33.67-.18-1.02-.91-2.29-1.76-2.78-3.61-2.06-7.28-4.07-11.09-5.72-3.8-1.64-6.08-.03-4.71,3.7,2.63,7.17-.48,13.49-1.94,20.04-.29,1.31-2.4,2.81-3.91,3.14-4.43,.98-9.42-5.34-7.86-9.63,1.12-3.06,4.55-4.26,7.22-2.46,1.21,.82,2.31,1.79,4.87,3.8,0-4.85-.11-8.43,.03-12,.11-2.83,.52-5.65,.8-8.48,2.8,.36,5.73,.34,8.38,1.18,2.78,.87,5.3,2.57,8.82,4.35-1.99-8.6-4.79-15.79-10.74-21.24-1.66-1.52-4.48-2.6-6.72-2.51-16.78,.67-33.22,2.98-47.79,12.3-2.07,1.33-4.48,2.75-5.64,4.76-3.21,5.6-8.39,8.17-13.81,10.92-6.04,3.06-11.75,6.82-17.38,10.61-4.34,2.92-8.73,4.1-13.64,2.01-3.52-1.5-6.94-3.23-10.4-4.88-5.79-2.76-8.04-2.37-12.34,2.2-.34,.36-.63,.78-.97,1.14-6.42,6.78-9.7,7.18-17.4,1.86-1.77,2.35-3.56,4.71-5.56,7.36,4.42,3.13,9.04,5.83,12.96,9.32,6.97,6.2,14.51,11.37,23.06,15.09,.98,.43,1.69,1.5,2.49,2.32,3.88,3.98,7.38,8.43,11.69,11.86,5.93,4.72,6.17,5.51-.7,11.12-.87-1.34-1.46-2.98-2.63-3.83-1.19-.86-2.95-.95-5.15-1.57,1.28-2.01,2.3-3.61,3.11-4.87-3.01-4.01-5.42-8.49-8.99-11.64-3.98-3.51-8.98-5.9-13.66-8.57-.75-.43-2.54-.14-3.16,.49-4.53,4.65-8.92,9.44-13.25,14.27-.39,.44-.05,1.53-.05,2.74-.92-.29-1.86-.95-2.58-.75-3.21,.86-10.39,15.42-8.79,18.52,4.07,7.85,1.79,14.44-2.78,19.89,1.86,5.02,3.23,9.55,5.2,13.79,1.35,2.9,3.35,5.57,5.43,8.05,1.29,1.54,3.27,2.52,4.93,3.75l-1.25,1.33c-.8-.63-1.67-1.19-2.38-1.91-4.62-4.73-9.55-8.79-16.33-10.23-2.4-.51-4.54-2.27-6.9-3.52,2.12-2.85,3.71-5,4.93-6.63-5.4-2.8-11.02-4.49-14.71-8.13-1.88-1.85-.33-7.2-.33-9.89-3.63-3.67-7.08-6.79-10.09-10.29-8.32-9.65-12.96-10.64-24.42-4.74-1.33,.69-2.59,1.52-3.92,2.21-7.24,3.72-13.36,1.08-13.5-6.94-.29-16.94-.23-33.94,1-50.82,.77-10.55,6.43-13.35,16.48-9.84,6.88,2.4,13.65,3.68,21.02,2.8,10.11-1.21,19.44,1.18,27.66,7.63,4.05,3.17,8.55,5.77,12.99,8.72,4.57-5.07,7.6-9.75,6.96-17.49-1.15-13.83-4.12-27.7-1.55-41.73,.74-4.05-.9-7.07-5.09-8.56-4.29-1.52-6.77,.66-8.49,4-6.14,11.92-16.66,13.62-28.48,12.48-7.61-.73-12.04-4.55-10.94-11.93,1.33-8.95,4.03-17.8,7.1-26.35,1.69-4.7,6.68-6.36,11.64-6.32,4.37,.03,6.94-1.91,9.07-5.67,1.69-2.97,4.67-5.18,6.73-7.98,1.53-2.08,3.44-4.52,3.55-6.88,.47-10.26,.55-20.56,.29-30.83-.06-2.36-1.69-4.9-3.17-6.95-2.41-3.35-5.28-6.38-7.51-10.17,.69,.35,1.53,.55,2.06,1.07,3.88,3.76,5.62,3.96,8.59-.6,3.94-6.06,8.53-8.8,15.91-6.57,1.69,.51,5.48-1.15,5.97-2.59,.66-1.98-.13-5.84-1.68-6.91-5.61-3.89-8.25-8.77-8.32-15.52-.02-1.53-1.86-3.04-3.07-4.86,4.09-.35,5.26,1.81,5.68,5.21,.41,3.29,1.25,6.53,1.89,9.8l1.3-.2Zm170.6,16.78c-3.08-2.56-5.6-6.68-10.09-1.9-6.39,6.8-13.07,13.32-19.53,20.04-2.47,2.57-2.58,5.13,.33,7.73,5.96,5.32,11.87,10.72,17.62,16.27,2.53,2.44,4.87,2.4,7.58,.66,6.03-3.87,10.87-8.68,13.33-15.65,1.86-5.28,4.31-10.22,9.57-12.64-2.71,4.54-5.98,8.86-8.01,13.71-2.99,7.13-7.9,12.22-14.2,16.24-3.34,2.13-6.36,1.98-9.41-1.01-5.35-5.24-10.81-10.41-16.62-15.13-1.73-1.4-5.8-2.48-7.01-1.51-4.79,3.89-10.09,8.01-12.85,13.28-2.6,4.98,4.09,7.48,6.78,11.01,.27,.36,.8,.52,1.34,.85,4.57-4.11,9.11-8.18,13.95-12.53-4.44,4.85-8.6,9.4-12.53,13.69,5.28,5.86,10.07,11.17,14.85,16.48,4.46,4.95,8.91,9.9,13.38,14.84,3.05,3.37,6.35,4.03,10.05,.97,1.15-.95,2.43-1.76,3.64-2.63,7.59-5.45,7.95-6.65,4.57-15.25-5.55-14.08-3.78-18.89,9.62-26.12,1.32-.71,2.63-1.9,3.99-1.98,3.5-.19,7.09-.26,10.51,.36,2.17,.4,4.07,2.19,6.15,3.24,5.62,2.82,9.1,.79,9.14-5.59,.1-13.29-2.49-26.16-6.77-38.68-2.35-6.88-6.56-11.91-13.78-14.76-7.22-2.85-13.86-7.13-20.9-10.49-2.63-1.26-5.63-1.85-8.52-2.45-6.66-1.38-13.35-2.56-20.02-3.85-3.07-.59-6.12-1.35-9.21-1.86-8.38-1.39-15.02,3.05-22.06,6.47-4.89,2.37-6.33,5.65-5.61,10.83,.39,2.81,.13,6.02-.89,8.64-2.28,5.88-4.99,11.62-7.93,17.21-3.11,5.9-1.77,10.96,2.16,15.66,3.31,3.96,6.92,7.66,10.32,11.55,2.23,2.54,4.55,2.54,6.93,.43,2.86-2.54,5.67-5.16,8.41-7.83,4.33-4.22,4.39-7.24,.01-11.33-2.8-2.62-5.86-4.97-8.81-7.44l1.74-1.76c2.67,2.56,5.35,5.11,8.02,7.67,4.53,4.35,7.33,4.26,11.78-.39,3.91-4.09,3.72-5.72-1.05-10.2-4.1-3.85-8.16-7.74-12.24-11.61l1.08-1.11c4.69,4.35,9.45,8.61,14.03,13.06,2.82,2.74,5.22,3.11,7.96-.08,2.28-2.65,4.82-5.07,7.32-7.52,5.43-5.32,8.26-4.84,11.86,2.44Zm-181.35,169.71c-3.96-2.66-9.08-6.05-14.16-9.51-5.49-3.74-11.35-6.01-18.18-5.78-9.59,.32-19.11,.95-28.48-2.99-7.71-3.24-11.51-.64-13.09,7.67-3.23,17.01-.59,34.16-.96,51.24-.01,.63,.34,1.28,.56,1.9,1.6,4.57,3.99,5.68,8.43,3.97,5.38-2.07,10.79-4.04,16.15-6.17,4.44-1.77,8.17-.8,11.24,2.71,2.85,3.26,5.54,6.64,8.32,9.96,3.97,4.73,7.95,4.45,10.95-1.03,1.59-2.9,2.57-6.11,3.92-9.15,3.46-7.8,5.04-16.69,12.75-22.07,.57-.4,.63-1.67,.72-2.56,.6-5.64,1.14-11.29,1.82-18.19Zm111.78-173.7c.64,.05,1.28,.09,1.93,.14,3.27-3.64,6.17-7.41,4.77-12.99-1.09-4.34-.37-8.08,3.02-11.4,3.84-3.76,5.25-9.11,2.21-13.25-10.02-13.66-20.58-26.94-31.42-39.97-2.39-2.88-7.04-4.68-10.9-2.05-3.61,2.47-4.43,6.46-2.89,10.73,.34,.94,.65,1.9,.81,2.88,1.2,6.98,2.4,13.95,3.52,20.95,.34,2.13,.18,4.35,.65,6.44,.99,4.38,3.7,6.98,8.39,7.04,2.16,.03,4.33-.04,6.49-.17,5.47-.32,9.63,1.84,11.24,7.11,1.23,4.04,1.74,8.35,2.1,12.58,.34,3.96,.07,7.98,.07,11.97Zm-81.56-227.47c1.66-.43,3.39-.52,4.7-1.29,4.22-2.5,8.5-2.24,12.97-1,2.23,.62,4.54,.98,6.82,1.43,6.47,1.27,13.82-2.46,16.9-8.32-4.06-8.9-11.34-11.8-20.48-12.58-8.96-.77-17.81-2.8-26.57-4.25,1.29,3.83,3.07,7.96,4.03,12.28,.95,4.3,1.08,8.79,1.63,13.74Zm-32.36,422.75c-2.72,4.54-5.33,8.4-7.45,12.52-4.31,8.35-8.31,16.85-12.53,25.25-1.94,3.87-1.71,10.25,.62,12.16,2.81,2.29,12.73,3.52,15.23,1.88,4.01-2.64,7.23-10.53,4.86-15.07-3.18-6.09-1.04-10.86,1.85-15.83,1.83-3.14,3.81-6.2,5.64-9.16-2.45-3.5-4.9-6.99-8.22-11.74Zm25.21-5.78c-6.64-5.04-12.72-9.65-18.85-14.31-7.06,10.62-5.1,23.02,4.24,30.04,4.49-4.84,9-9.7,14.61-15.74Zm41.84-204.01c0,6.79-.12,13.06,.09,19.33,.05,1.39,.97,3.65,1.93,3.91,1.44,.4,3.41-.33,4.89-1.1,1.7-.89,3.24-3.49,4.63-3.34,7.63,.82,6.7-4.17,6.6-8.83-.04-1.99-.05-4,.2-5.97,.36-2.9-1.03-3.98-3.66-3.99-4.64-.02-9.28,0-14.68,0Zm.17-1.89c4.18,0,8.12,.23,12.03-.09,2.12-.18,5.59-.88,5.94-2.08,.88-3,.4-6.43,.27-9.67-.02-.42-1.24-1.11-1.92-1.12-5.39-.09-10.78-.05-16.32-.05v13.01Zm184.1,36.55c4.88,.31,7.27-1.46,7.64-5.67,.4-4.5-3.07-8.51-7.51-8.68-4.48-.17-7.79,2.93-8.08,7.58-.26,4.1,2.47,6.42,7.96,6.77Zm-274.22,58.99c-5.77,.23-9.36,1.69-11.23,5-1.42,2.51-2.57,5.51,1.02,7.13,3.93,1.77,12.36-1.89,14.26-5.79,2.14-4.38,.76-6.53-4.05-6.34Zm90.86-110.56h15.95c-1.01-6.86-4.97-11.12-9.76-10.78-3.92,.28-6.02,3.78-6.19,10.78Zm57.2,135.53c4.72-.08,9.01-3.74,8.53-6.88-.59-3.87-2.99-6.24-7.02-6.43-3.4-.16-7.6,4.52-7.27,8.09,.37,3.92,3.1,5.12,5.76,5.22Zm-59.81-330.51c4.05,1.24,7.45,2.75,10.99,3.19,2.03,.25,5.69-.73,6.14-2.02,1.06-3.05,1.85-7.06-2.12-9.17-1.39-.74-3.85-1.31-4.87-.6-3.45,2.4-6.48,5.41-10.14,8.6Zm-64.07,489.79c.56-.47,1.11-.94,1.67-1.42-1.74-3.72-3.36-7.5-5.35-11.08-.28-.5-3.09-.46-3.54,.18-1.54,2.18-2.55,4.74-4.09,7.79l11.31,4.53Zm208.86-4.83c-4.81,5.41-5.21,8.01-1.79,10.63,2.65,2.03,5.39,1.88,7.52-.56,2.27-2.6-.26-6.96-5.73-10.07Zm-211.99-245.36c4.02-2.83,8.05-5.66,12.24-8.6-8.74-2.95-12.77,.02-12.24,8.6Zm39.05-239.59c7.25,3.87,11.28,3.68,15.49-.92-5.37-1.18-10.52-3.19-15.49,.92Zm113.78,393.19c-2.77-2.49-4.72-4.36-6.89-5.92-.17-.12-3.01,2.71-2.82,3,1.43,2.17,3.18,4.2,5.17,5.87,.31,.26,2.32-1.48,4.54-2.96Z"/>
                <path style="fill:#8d959d"
                    d="M679.49,415.63c-3.61-7.28-6.43-7.76-11.86-2.44-2.5,2.45-5.04,4.87-7.32,7.52-2.75,3.19-5.15,2.82-7.96,.08-4.58-4.45-9.34-8.72-14.03-13.06l-1.08,1.11c4.08,3.87,8.14,7.76,12.24,11.61,4.78,4.48,4.96,6.11,1.05,10.2-4.45,4.65-7.26,4.74-11.78,.39-2.67-2.56-5.34-5.12-8.02-7.67l-1.74,1.76c2.95,2.47,6.01,4.82,8.81,7.44,4.37,4.09,4.32,7.11-.01,11.33-2.74,2.67-5.55,5.29-8.41,7.83-2.38,2.11-4.71,2.12-6.93-.43-3.4-3.89-7.01-7.59-10.32-11.55-3.93-4.7-5.27-9.76-2.16-15.66,2.94-5.58,5.66-11.33,7.93-17.21,1.02-2.62,1.28-5.83,.89-8.64-.72-5.18,.73-8.46,5.61-10.83,7.04-3.42,13.68-7.85,22.06-6.47,3.09,.51,6.13,1.26,9.21,1.86,6.67,1.29,13.37,2.47,20.02,3.85,2.89,.6,5.89,1.2,8.52,2.45,7.04,3.36,13.68,7.64,20.9,10.49,7.22,2.85,11.43,7.88,13.78,14.76,4.28,12.52,6.87,25.39,6.77,38.68-.05,6.37-3.53,8.41-9.14,5.59-2.08-1.05-3.98-2.84-6.15-3.24-3.42-.62-7.01-.56-10.51-.36-1.36,.08-2.67,1.27-3.99,1.98-13.4,7.23-15.17,12.04-9.62,26.12,3.39,8.6,3.03,9.81-4.57,15.25-1.22,.87-2.49,1.68-3.64,2.63-3.7,3.06-7,2.41-10.05-.97-4.47-4.94-8.92-9.9-13.38-14.84-4.78-5.31-9.57-10.61-14.85-16.48,3.92-4.29,8.09-8.84,12.53-13.69-4.84,4.35-9.38,8.42-13.95,12.53-.54-.33-1.07-.49-1.34-.85-2.69-3.53-9.38-6.04-6.78-11.01,2.75-5.27,8.06-9.39,12.85-13.28,1.2-.98,5.28,.1,7.01,1.51,5.81,4.72,11.27,9.88,16.62,15.13,3.05,2.99,6.07,3.14,9.41,1.01,6.3-4.02,11.21-9.11,14.2-16.24,2.03-4.84,5.3-9.17,8.01-13.71-5.27,2.43-7.72,7.37-9.57,12.64-2.45,6.97-7.29,11.78-13.33,15.65-2.71,1.74-5.06,1.78-7.58-.66-5.75-5.55-11.66-10.95-17.62-16.27-2.91-2.6-2.79-5.16-.33-7.73,6.47-6.72,13.15-13.24,19.53-20.04,4.49-4.78,7.01-.66,10.09,1.9Z"/>
                <path style="fill:#8d959d"
                    d="M498.14,585.34c-.68,6.9-1.22,12.55-1.82,18.19-.09,.89-.16,2.16-.72,2.56-7.71,5.39-9.29,14.27-12.75,22.07-1.34,3.03-2.33,6.25-3.92,9.15-3,5.48-6.99,5.76-10.95,1.03-2.78-3.31-5.47-6.7-8.32-9.96-3.07-3.51-6.8-4.48-11.24-2.71-5.35,2.13-10.77,4.11-16.15,6.17-4.44,1.7-6.83,.59-8.43-3.97-.22-.63-.58-1.27-.56-1.9,.37-17.08-2.27-34.23,.96-51.24,1.58-8.31,5.38-10.91,13.09-7.67,9.36,3.94,18.88,3.3,28.48,2.99,6.83-.23,12.69,2.05,18.18,5.78,5.08,3.46,10.2,6.85,14.16,9.51Z"/>
                <path style="fill:#8d959d"
                    d="M609.92,411.64c0-3.99,.27-8.01-.07-11.97-.36-4.23-.87-8.54-2.1-12.58-1.61-5.27-5.77-7.42-11.24-7.11-2.16,.12-4.33,.19-6.49,.17-4.69-.06-7.4-2.65-8.39-7.04-.47-2.09-.31-4.31-.65-6.44-1.11-6.99-2.32-13.97-3.52-20.95-.17-.98-.48-1.94-.81-2.88-1.54-4.26-.73-8.26,2.89-10.73,3.86-2.64,8.51-.83,10.9,2.05,10.84,13.02,21.39,26.31,31.42,39.97,3.03,4.13,1.63,9.49-2.21,13.25-3.39,3.32-4.11,7.07-3.02,11.4,1.4,5.58-1.5,9.35-4.77,12.99-.64-.05-1.28-.09-1.93-.14Z"/>
                <path style="fill:#8d959d"
                    d="M528.36,184.17c-.55-4.95-.68-9.44-1.63-13.74-.96-4.32-2.74-8.45-4.03-12.28,8.75,1.45,17.61,3.49,26.57,4.25,9.14,.78,16.42,3.68,20.48,12.58-3.07,5.86-10.43,9.59-16.9,8.32-2.28-.45-4.59-.81-6.82-1.43-4.47-1.24-8.75-1.5-12.97,1-1.31,.78-3.04,.86-4.7,1.29Z"/>
                <path style="fill:#8d959d"
                    d="M496,606.92c3.32,4.75,5.77,8.24,8.22,11.74-1.83,2.96-3.81,6.02-5.64,9.16-2.89,4.98-5.03,9.74-1.85,15.83,2.37,4.54-.85,12.43-4.86,15.07-2.49,1.64-12.41,.42-15.23-1.88-2.33-1.9-2.57-8.29-.62-12.16,4.21-8.4,8.22-16.9,12.53-25.25,2.12-4.12,4.73-7.98,7.45-12.52Z"/>
                <path style="fill:#8d959d"
                    d="M521.21,601.14c-5.61,6.04-10.12,10.9-14.61,15.74-9.34-7.03-11.31-19.42-4.24-30.04,6.13,4.65,12.21,9.27,18.85,14.31Z"/>
                <path style="fill:#8d959d"
                    d="M563.05,397.13c5.4,0,10.04-.01,14.68,0,2.63,.01,4.02,1.09,3.66,3.99-.25,1.97-.24,3.98-.2,5.97,.1,4.66,1.03,9.64-6.6,8.83-1.39-.15-2.93,2.46-4.63,3.34-1.48,.77-3.45,1.5-4.89,1.1-.96-.26-1.88-2.52-1.93-3.91-.2-6.27-.09-12.54-.09-19.33Z"/>
                <path style="fill:#8d959d"
                    d="M563.22,395.24v-13.01c5.53,0,10.92-.04,16.32,.05,.68,.01,1.9,.7,1.92,1.12,.14,3.25,.61,6.67-.27,9.67-.35,1.2-3.83,1.9-5.94,2.08-3.9,.32-7.85,.09-12.03,.09Z"/>
                <path style="fill:#8d959d"
                    d="M747.32,431.79c-5.49-.35-8.22-2.67-7.96-6.77,.29-4.65,3.6-7.75,8.08-7.58,4.44,.17,7.91,4.18,7.51,8.68-.37,4.2-2.76,5.98-7.64,5.67Z"/>
                <path style="fill:#8d959d"
                    d="M473.11,490.78c4.81-.19,6.18,1.96,4.05,6.34-1.9,3.9-10.33,7.57-14.26,5.79-3.59-1.62-2.44-4.62-1.02-7.13,1.87-3.31,5.47-4.77,11.23-5Z"/>
                <path style="fill:#8d959d" d="M563.96,380.22c.17-7,2.27-10.5,6.19-10.78,4.79-.34,8.75,3.92,9.76,10.78h-15.95Z"/>
                <path style="fill:#8d959d"
                    d="M621.17,515.75c-2.66-.1-5.39-1.3-5.76-5.22-.34-3.57,3.86-8.24,7.27-8.09,4.03,.19,6.43,2.56,7.02,6.43,.48,3.15-3.81,6.8-8.53,6.88Z"/>
                <path style="fill:#8d959d"
                    d="M561.36,185.23c3.66-3.19,6.69-6.2,10.14-8.6,1.02-.71,3.48-.14,4.87,.6,3.97,2.11,3.18,6.12,2.12,9.17-.45,1.29-4.11,2.28-6.14,2.02-3.54-.44-6.94-1.95-10.99-3.19Z"/>
                <path style="fill:#8d959d"
                    d="M497.29,675.02l-11.31-4.53c1.53-3.05,2.55-5.61,4.09-7.79,.45-.63,3.26-.67,3.54-.18,1.99,3.58,3.61,7.36,5.35,11.08-.56,.47-1.11,.94-1.67,1.42Z"/>
                <path style="fill:#8d959d"
                    d="M706.16,670.19c5.48,3.11,8,7.47,5.73,10.07-2.13,2.45-4.87,2.6-7.52,.56-3.42-2.62-3.02-5.22,1.79-10.63Z"/>
                <path style="fill:#8d959d" d="M494.17,424.84c-.53-8.58,3.5-11.56,12.24-8.6-4.19,2.95-8.22,5.78-12.24,8.6Z"/>
                <path style="fill:#8d959d" d="M533.22,185.25c4.97-4.11,10.12-2.1,15.49-.92-4.21,4.6-8.24,4.79-15.49,.92Z"/>
                <path style="fill:#8d959d"
                    d="M647,578.43c-2.23,1.48-4.23,3.22-4.54,2.96-1.99-1.67-3.74-3.7-5.17-5.87-.19-.29,2.65-3.12,2.82-3,2.18,1.55,4.12,3.43,6.89,5.92Z"/>
            </g>
        </g>
    </g>
</svg>
